<svg width="493" height="110" viewBox="0 0 493 110" fill="none" xmlns="http://www.w3.org/2000/svg">
<path d="M467.622 19.392C467.622 24.64 466.182 29.024 463.302 32.544C460.422 36 456.422 37.952 451.302 38.4V30.816C453.798 30.56 455.75 29.632 457.158 28.032C458.63 26.432 459.366 24.384 459.366 21.888H452.454V7.008H467.622V19.392ZM487.782 19.392C487.782 24.64 486.342 29.024 483.462 32.544C480.582 36 476.582 37.952 471.462 38.4V30.816C473.958 30.56 475.91 29.632 477.318 28.032C478.79 26.432 479.526 24.384 479.526 21.888H472.614V7.008H487.782V19.392Z" fill="#FCEE21" fill-opacity="0.3"/>
<path d="M5.26213 26.016C5.26213 20.768 6.70213 16.416 9.58213 12.96C12.4621 9.44 16.4621 7.456 21.5821 7.008V14.592C19.0861 14.848 17.1021 15.776 15.6301 17.376C14.2221 18.976 13.5181 21.024 13.5181 23.52H20.4301V38.4H5.26213V26.016ZM25.4221 26.016C25.4221 20.768 26.8621 16.416 29.7421 12.96C32.6221 9.44 36.6221 7.456 41.7421 7.008V14.592C39.2461 14.848 37.2621 15.776 35.7901 17.376C34.3821 18.976 33.6781 21.024 33.6781 23.52H40.5901V38.4H25.4221V26.016Z" fill="#FCEE21" fill-opacity="0.3"/>
</svg>
